<?xml version="1.0" encoding="utf-8"?>
<!-- Generator: Adobe Illustrator 19.0.0, SVG Export Plug-In . SVG Version: 6.00 Build 0)  -->
<svg version="1.1" id="Layer_1" xmlns="http://www.w3.org/2000/svg" xmlns:xlink="http://www.w3.org/1999/xlink" x="0px" y="0px"
	 viewBox="131 -131 512 512" style="enable-background:new 131 -131 512 512;" xml:space="preserve">
<g id="XMLID_1_">
	<path id="XMLID_5_" d="M387-131c-141.5,0-256,114.5-256,256s114.5,256,256,256s256-114.5,256-256S528.5-131,387-131z M455,124.1
		h-44.7c0,70.7,0,158.3,0,158.3h-66.1c0,0,0-86.6,0-158.3h-31.7V68.2h31.7V31.9c0-26.1,12.1-66.1,66.1-66.1h48.4v54
		c0,0-29.8,0-35.4,0s-14,2.8-14,14.9v32.6h50.3L455,124.1z"/>
</g>
</svg>
