<?xml version="1.0" encoding="utf-8"?>
<!-- Generator: Adobe Illustrator 19.0.0, SVG Export Plug-In . SVG Version: 6.00 Build 0)  -->
<svg version="1.1" id="Layer_1" xmlns="http://www.w3.org/2000/svg" xmlns:xlink="http://www.w3.org/1999/xlink" x="0px" y="0px"
	 viewBox="0 0 512 512" style="enable-background:new 0 0 512 512;" xml:space="preserve">
<g id="XMLID_2_">
	<path id="XMLID_7_" d="M451.5,376.6c0-8.4-2.8-15.8-8.4-21.4L377.9,290c-5.6-5.6-13-8.4-21.4-8.4c-8.4,0-16.8,3.7-22.3,10.2
		c0.9,0.9,2.8,2.8,5.6,5.6c3.7,2.8,5.6,5.6,6.5,6.5c0.9,0.9,2.8,2.8,4.7,5.6c1.9,2.8,3.7,5.6,3.7,8.4c0.9,2.8,0.9,5.6,0.9,8.4
		c0,8.4-2.8,15.8-8.4,21.4c-5.6,5.6-13,8.4-21.4,8.4c-2.8,0-5.6,0-8.4-0.9c-2.8-0.9-5.6-1.9-8.4-3.7c-2.8-1.9-4.7-3.7-5.6-4.7
		c-0.9-0.9-3.7-3.7-6.5-6.5c-2.8-3.7-5.6-5.6-5.6-5.6c-6.5,6.5-10.2,14-10.2,23.3c0,8.4,2.8,15.8,8.4,21.4l64.2,65.2
		c5.6,5.6,13,8.4,21.4,8.4s15.8-2.8,21.4-8.4l46.5-45.6C448.7,392.4,451.5,384.9,451.5,376.6z M230.9,155.9c0-8.4-2.8-15.8-8.4-21.4
		l-64.2-65.2c-5.6-5.6-13-8.4-21.4-8.4c-8.4,0-14.9,2.8-21.4,8.4L68.9,115c-5.6,5.6-8.4,13-8.4,21.4c0,8.4,2.8,15.8,8.4,21.4
		l65.2,65.2c5.6,5.6,13,8.4,21.4,8.4c8.4,0,16.8-2.8,22.3-9.3c-0.9-0.9-2.8-2.8-5.6-5.6c-3.7-2.8-5.6-5.6-6.5-6.5
		c-0.9-0.9-2.8-2.8-4.7-5.6c-1.9-2.8-3.7-5.6-3.7-8.4c-0.9-2.8-0.9-5.6-0.9-8.4c0-8.4,2.8-15.8,8.4-21.4c5.6-5.6,13-8.4,21.4-8.4
		c2.8,0,5.6,0,8.4,0.9c2.8,0.9,5.6,1.9,8.4,3.7c2.8,1.9,4.7,3.7,5.6,4.7s3.7,3.7,6.5,6.5c2.8,3.7,5.6,5.6,5.6,5.6
		C228.1,171.8,230.9,164.3,230.9,155.9z M512,376.6c0,25.1-9.3,46.5-27,63.3l-46.5,45.6c-17.7,17.7-38.2,26.1-63.3,26.1
		s-46.5-9.3-64.2-27l-64.2-65.2c-17.7-17.7-26.1-38.2-26.1-63.3c0-26.1,9.3-47.5,27.9-65.2L220.6,263c-17.7,18.6-40,27.9-65.2,27.9
		s-46.5-8.4-64.2-26.1l-65.2-65.2C8.4,182,0,160.6,0,135.4s9.3-46.5,27-63.3l46.5-45.6C91.2,8.8,111.7,0.5,136.8,0.5
		s46.5,9.3,64.2,27l64.2,65.2c17.7,17.7,26.1,38.2,26.1,63.3c0,26.1-9.3,47.5-27.9,65.2l27.9,27.9c17.7-18.6,40-27.9,65.2-27.9
		s46.5,8.4,64.2,26.1l65.2,65.2C503.6,330.9,512,351.4,512,376.6z"/>
</g>
</svg>
