<?xml version="1.0" encoding="utf-8"?>
<!-- Generator: Adobe Illustrator 19.0.0, SVG Export Plug-In . SVG Version: 6.00 Build 0)  -->
<svg version="1.1" id="Layer_1" xmlns="http://www.w3.org/2000/svg" xmlns:xlink="http://www.w3.org/1999/xlink" x="0px" y="0px"
	 viewBox="0 0 512 512" style="enable-background:new 0 0 512 512;" xml:space="preserve">
<g id="XMLID_1_">
	<path id="XMLID_5_" d="M261.6,122.9c-70.7,0-127.5,57.7-127.5,127.5c0,24.2,6.5,47.5,19.5,68l2.8,4.7l-13,47.5l48.4-13l4.7,2.8
		c19.5,12.1,41.9,17.7,65.2,17.7l0,0c70.7,0,127.5-57.7,127.5-127.5c0-34.4-13-66.1-37.2-90.3C327.7,135.9,296,122.9,261.6,122.9z
		 M337,305.3c-2.8,9.3-18.6,16.8-26.1,18.6c-6.5,0.9-14.9,1.9-24.2-1.9c-5.6-1.9-13-3.7-22.3-8.4c-38.2-16.8-63.3-55.9-65.2-57.7
		c-1.9-2.8-15.8-20.5-15.8-40c0-18.6,10.2-27.9,13-31.7c3.7-3.7,7.4-4.7,10.2-4.7c2.8,0,5.6,0,7.4,0c2.8,0,5.6-0.9,8.4,6.5
		c2.8,7.4,11.2,27,12.1,28.9c0.9,1.9,1.9,3.7,0,6.5c-0.9,2.8-1.9,3.7-3.7,6.5c-1.9,1.9-3.7,4.7-5.6,6.5c-1.9,1.9-3.7,3.7-1.9,7.4
		c1.9,3.7,10.2,16.8,21.4,27c14.9,13,27,16.8,30.7,18.6c3.7,1.9,6.5,1.9,8.4-0.9s9.3-11.2,12.1-14.9c2.8-3.7,4.7-2.8,8.4-1.9
		c3.7,0.9,22.3,10.2,26.1,12.1c3.7,1.9,6.5,2.8,7.4,4.7C339.8,288.6,339.8,296,337,305.3z"/>
	<path id="XMLID_8_" d="M256,0C114.5,0,0,114.5,0,256s114.5,256,256,256s256-114.5,256-256S397.5,0,256,0z M261.6,404L261.6,404
		L261.6,404c-26.1,0-51.2-6.5-73.5-18.6l-81,21.4l21.4-80.1c-13-23.3-20.5-49.3-20.5-77.3c0-84.7,68.9-153.6,153.6-153.6
		c41,0,80.1,15.8,108.9,44.7s44.7,68,44.7,108.9C415.2,335.1,346.3,404,261.6,404z"/>
</g>
</svg>
